<svg width="11" height="10" viewBox="0 0 11 10" fill="none" xmlns="http://www.w3.org/2000/svg">
<path d="M4.38281 9H2.56641V1.94531H0.240234V0.433594H6.70898V1.94531H4.38281V9ZM9.02297 2.32617C9.11281 2.32617 9.21633 2.33203 9.33352 2.34375C9.45461 2.35156 9.55227 2.36328 9.62648 2.37891L9.49172 4.05469C9.43313 4.03516 9.34914 4.02148 9.23977 4.01367C9.1343 4.00195 9.0425 3.99609 8.96438 3.99609C8.73391 3.99609 8.5093 4.02539 8.29055 4.08398C8.0757 4.14258 7.88234 4.23828 7.71047 4.37109C7.53859 4.5 7.40188 4.67188 7.30031 4.88672C7.20266 5.09766 7.15383 5.35742 7.15383 5.66602V9H5.36672V2.44922H6.72023L6.98391 3.55078H7.0718C7.2007 3.32812 7.36086 3.125 7.55227 2.94141C7.74758 2.75391 7.96828 2.60547 8.21438 2.49609C8.46438 2.38281 8.73391 2.32617 9.02297 2.32617ZM8.04398 8.16211C8.04398 7.79492 8.14359 7.53711 8.34281 7.38867C8.54594 7.24023 8.79008 7.16602 9.07523 7.16602C9.35258 7.16602 9.59086 7.24023 9.79008 7.38867C9.9932 7.53711 10.0948 7.79492 10.0948 8.16211C10.0948 8.51367 9.9932 8.76758 9.79008 8.92383C9.59086 9.08008 9.35258 9.1582 9.07523 9.1582C8.79008 9.1582 8.54594 9.08008 8.34281 8.92383C8.14359 8.76758 8.04398 8.51367 8.04398 8.16211Z" fill="url(#paint0_linear_542_11)"/>
<defs>
<linearGradient id="paint0_linear_542_11" x1="-0.5" y1="-0.5" x2="10.5" y2="10.5" gradientUnits="userSpaceOnUse">
<stop stop-color="#1FC9FF"/>
<stop offset="1" stop-color="#044E6E"/>
</linearGradient>
</defs>
</svg>
