<svg width="363" height="364" viewBox="0 0 363 364" fill="none" xmlns="http://www.w3.org/2000/svg">
<g clip-path="url(#clip0_45_2)">
<path d="M181.514 363.219C281.683 363.219 362.886 282.016 362.886 181.848C362.886 81.679 281.683 0.476196 181.514 0.476196C81.3456 0.476196 0.142822 81.679 0.142822 181.848C0.142822 282.016 81.3456 363.219 181.514 363.219Z" fill="#6481E7"/>
<path fill-rule="evenodd" clip-rule="evenodd" d="M102.274 189.227L183.631 237.322V54.2317L102.274 189.227Z" fill="white"/>
<path fill-rule="evenodd" clip-rule="evenodd" d="M183.636 54.2317V237.322L264.993 189.227L183.636 54.2317Z" fill="#C1CCF5"/>
<path fill-rule="evenodd" clip-rule="evenodd" d="M183.637 152.25L102.274 189.225L183.631 237.32L264.993 189.231L183.637 152.25Z" fill="#8299EC"/>
<path fill-rule="evenodd" clip-rule="evenodd" d="M183.637 152.25L102.274 189.225L183.631 237.32L183.637 152.25Z" fill="#C1CCF5"/>
<path fill-rule="evenodd" clip-rule="evenodd" d="M102.274 204.657L183.631 319.308V252.725L102.274 204.657Z" fill="white"/>
<path fill-rule="evenodd" clip-rule="evenodd" d="M183.636 252.725V319.313L265.047 204.657L183.636 252.725Z" fill="#C1CCF5"/>
</g>
<defs>
<clipPath id="clip0_45_2">
<rect width="363" height="364" fill="white"/>
</clipPath>
</defs>
</svg>
